<!DOCTYPE svg PUBLIC "-//W3C//DTD SVG 1.1//EN" "http://www.w3.org/Graphics/SVG/1.1/DTD/svg11.dtd">
<!-- Uploaded to: SVG Repo, www.svgrepo.com, Transformed by: SVG Repo Mixer Tools -->
<svg fill="#000000" version="1.1" id="Capa_1" xmlns="http://www.w3.org/2000/svg" xmlns:xlink="http://www.w3.org/1999/xlink" width="64px" height="64px" viewBox="0 0 48.312 48.312" xml:space="preserve">
<g id="SVGRepo_bgCarrier" stroke-width="0"/>
<g id="SVGRepo_tracerCarrier" stroke-linecap="round" stroke-linejoin="round"/>
<g id="SVGRepo_iconCarrier"> <g> <g> <path d="M42.624,25.483l-5.091-9.054c-0.312-0.553-0.896-0.895-1.53-0.895h-8.529c-0.971,0-1.754,0.785-1.754,1.754v8.16h-6.029 v-10.14c0-0.585-0.292-1.133-0.781-1.458L8.392,6.841L8.386,6.837L8.381,6.833C7.742,6.445,7.127,6.321,6.527,6.641 C5.93,6.958,5.588,7.605,5.655,8.277c0,0.002,0,0.002,0,0.003c0,0.002,0,0.004,0,0.007S5.654,8.292,5.654,8.293v8.553 c0,0.591-0.479,1.073-1.073,1.073c-0.593,0-1.073-0.482-1.073-1.073c0-0.97-0.785-1.754-1.754-1.754 C0.786,15.092,0,15.877,0,16.847c0,2.526,2.056,4.581,4.582,4.581s4.582-2.055,4.582-4.581v-3.853l4.093,4.723v7.729H3.732 c-0.969,0-1.754,0.786-1.754,1.754v8.366c0,0.97,0.785,1.754,1.754,1.754H5.03c0.594,2.592,2.906,4.533,5.674,4.533 c2.77,0,5.083-1.941,5.677-4.533h16.068c0.596,2.592,2.907,4.533,5.674,4.533c2.771,0,5.084-1.941,5.678-4.533h2.756 c0.971,0,1.755-0.784,1.755-1.754V31.47C48.312,28.266,45.787,25.662,42.624,25.483z M10.693,38.338 c-1.279,0-2.314-1.037-2.314-2.314c0-1.278,1.038-2.315,2.314-2.315c1.279,0,2.316,1.037,2.316,2.315 C13.009,37.301,11.973,38.338,10.693,38.338z M29.228,25.447v-6.406h5.75l3.604,6.406H29.228z M38.138,38.338 c-1.279,0-2.314-1.037-2.314-2.314c0-1.278,1.037-2.315,2.314-2.315c1.276,0,2.313,1.037,2.313,2.315 C40.451,37.301,39.416,38.338,38.138,38.338z"/> </g> </g> </g>
</svg>