<svg width="577" height="166" viewBox="0 0 577 166" fill="none" xmlns="http://www.w3.org/2000/svg">
<path d="M81.6458 0.138139C59.9942 0.143788 39.2311 8.82239 23.9211 24.266C8.6111 39.7097 0.00755259 60.6539 0.00195312 82.4943V164.861H81.6458C92.4464 164.985 103.164 162.946 113.178 158.863C123.191 154.779 132.303 148.732 139.984 141.072C147.665 133.412 153.762 124.29 157.924 114.236C162.086 104.182 164.229 93.3953 164.229 82.4996C164.229 71.6044 162.086 60.8172 157.924 50.7632C153.762 40.7087 147.665 31.5875 139.984 23.9273C132.303 16.267 123.191 10.2201 113.178 6.13657C103.164 2.05307 92.4464 0.0142408 81.6458 0.138139Z" fill="#0BBAEF"/>
<path d="M121.676 82.5742H116.586H116.924H99.132H98.7837H92.6064C85.4603 82.6581 78.6334 85.5733 73.6 90.6905L0.00195312 164.877H29.0716L102.669 90.6905C107.703 85.5733 114.53 82.6581 121.676 82.5742Z" fill="white"/>
<path d="M74.8142 82.5742H69.6929H70.0413H46.0825C42.4865 82.5725 38.9257 83.2887 35.6058 84.6814C32.2857 86.0745 29.2717 88.1168 26.738 90.6905L0.00195312 117.596V146.919L55.8074 90.6905C60.8412 85.5734 67.6681 82.6581 74.8142 82.5742Z" fill="white"/>
<path d="M70.0625 82.5369H75.1916H74.8509H92.7809H93.1213H99.3572C106.552 82.4614 113.43 79.4959 118.511 74.2785L152.476 39.4922C148.91 33.3467 144.594 27.6905 139.633 22.6602L89.2162 74.2785C84.1321 79.4899 77.256 82.4544 70.0625 82.5369Z" fill="white"/>
<path d="M136.424 74.2222C131.249 79.4681 124.249 82.4526 116.926 82.5354H122.147H121.8H146.401C152.909 82.5441 159.216 80.2516 164.231 76.0535C163.619 67.6737 161.772 59.4337 158.75 51.6074L136.424 74.2222Z" fill="white"/>
<path d="M215.778 86.6628C219.808 86.5245 223.822 86.1048 227.793 85.4057L228.459 85.2994L228.132 78.2908L217.319 79.1535C212.473 79.1535 209.273 77.9712 207.815 75.6492C206.358 73.3274 205.492 68.779 205.492 62.4203C205.492 56.0615 206.327 51.769 207.964 49.4575C209.6 47.1463 212.663 46.145 217.245 46.145C220.593 46.2405 223.934 46.5072 227.254 46.9437L228.078 47.0076L228.406 40.0417L225.681 39.6903C222.475 39.1134 219.233 38.7576 215.978 38.625C209.379 38.625 204.564 40.4464 201.691 44.0468C198.82 47.6467 197.467 53.7818 197.467 62.4095C197.467 71.0372 198.799 77.3214 201.417 80.9642C204.035 84.607 208.871 86.6628 215.778 86.6628Z" fill="#0BBAEF"/>
<path d="M268.204 80.8012C270.917 76.9883 272.29 70.8426 272.29 62.5556C272.29 54.2689 270.833 48.1443 267.983 44.3843C265.131 40.6245 260.115 38.6328 253.199 38.6328C246.283 38.6328 241.363 40.5714 238.416 44.3843C235.471 48.1974 234.066 54.2582 234.066 62.5556C234.066 70.8528 235.438 76.9883 238.142 80.8012C240.846 84.6144 245.945 86.6594 253.137 86.6594C260.327 86.6594 265.426 84.689 268.204 80.8012ZM253.23 45.9395C257.456 45.9395 260.306 47.079 261.816 49.3159C263.325 51.5527 264.17 56.069 264.17 62.4491C264.17 68.8292 263.453 73.324 262.058 75.7951C260.665 78.2665 257.75 79.3103 253.241 79.3103C248.732 79.3103 245.754 78.1065 244.392 75.7421C243.03 73.3773 242.229 68.7653 242.229 62.3958C242.229 56.0265 243.03 51.6592 244.615 49.3266C246.198 46.994 249.038 45.9395 253.23 45.9395Z" fill="#0BBAEF"/>
<path d="M304.718 46.7344V38.373L303.811 38.5648C298.516 39.6982 293.493 41.8695 289.027 44.9558V39.5553H281.181V85.7718H289.111V52.6459L290.865 51.6873C292.756 50.6797 294.71 49.7971 296.714 49.0459C299.111 48.0999 301.583 47.3655 304.106 46.8514L304.718 46.7344Z" fill="#0BBAEF"/>
<path d="M326.368 49.0459C328.765 48.1016 331.239 47.3676 333.76 46.8514L334.361 46.7344V38.373L333.465 38.5648C328.17 39.6982 323.147 41.8695 318.681 44.9558V39.5553H310.835V85.7718H318.765V52.6459L320.519 51.6873C322.409 50.6785 324.363 49.7963 326.368 49.0459Z" fill="#0BBAEF"/>
<path d="M355.428 86.6628C361.052 86.5821 366.668 86.1015 372.228 85.2246L372.89 85.1289L372.671 78.3547L369.404 78.7064C365.036 79.0578 360.694 79.2389 356.493 79.2389C352.513 79.2389 349.714 78.1736 348.152 75.9793C346.588 73.7854 345.817 70.5686 345.743 66.1803H373.938L374.328 60.3221C374.328 52.9618 372.829 47.4553 369.872 43.9507C366.916 40.4464 362.334 38.625 356.367 38.625C343.991 38.625 337.718 46.7947 337.718 62.9105C337.718 70.8987 339.059 76.8956 341.7 80.7407C344.339 84.5855 349.027 86.6628 355.428 86.6628ZM345.659 59.2993C345.796 54.6448 346.715 51.2047 348.426 49.0849C350.136 46.9652 352.819 45.7936 356.409 45.7936C360 45.7936 362.5 46.8587 364.022 48.8823C365.542 50.9063 366.324 54.3998 366.398 59.2993H345.659Z" fill="#0BBAEF"/>
<path d="M409.383 39.6239C406.16 38.9856 402.888 38.6541 399.606 38.6334C392.985 38.6334 388.146 40.6785 385.243 44.7154C382.339 48.7522 380.958 55.143 380.958 63.8875C380.958 72.6324 382.573 78.9061 385.781 82.2611C387.191 83.791 388.936 84.9598 390.884 85.6694C392.895 86.3308 395.005 86.6472 397.123 86.6069C401.427 86.53 405.641 85.3656 409.383 83.2198V85.7121H417.217V20.0254H409.383V39.6239ZM409.383 76.1152L408.105 76.7118C406.604 77.3751 405.055 77.9166 403.47 78.331C399.606 79.3959 396.373 79.3959 394.482 78.5757C393.447 78.097 392.549 77.3648 391.864 76.4456C389.996 74.2087 389.046 69.6818 389.046 62.9824C389.046 57.0709 389.878 52.6718 391.518 49.913C393.154 47.1543 395.856 45.9401 399.963 45.9401C403.133 45.9669 406.292 46.2841 409.404 46.8882L409.383 76.1152Z" fill="#0BBAEF"/>
<path d="M445.368 38.6328C438.494 38.6328 433.534 40.5714 430.587 44.3843C427.641 48.1974 426.235 54.2582 426.235 62.5556C426.235 70.8528 427.609 76.9883 430.311 80.8012C433.016 84.6144 438.127 86.6594 445.307 86.6594C452.486 86.6594 457.543 84.689 460.312 80.8012C463.078 76.9137 464.389 70.8528 464.389 62.5556C464.389 54.2582 462.939 48.1443 460.078 44.3843C457.218 40.6245 452.235 38.6328 445.368 38.6328ZM445.368 45.9606C449.592 45.9606 452.444 47.1005 453.945 49.3372C455.443 51.5742 456.301 56.0901 456.301 62.4706C456.301 68.8507 455.582 73.3561 454.185 75.8166C452.794 78.2771 449.891 79.3316 445.38 79.3316C440.87 79.3316 437.881 78.1278 436.523 75.763C435.159 73.3988 434.356 68.7868 434.356 62.4169C434.356 56.0475 435.159 51.6805 436.753 49.3481C438.349 47.0151 441.169 45.9395 445.368 45.9395V45.9606Z" fill="#0BBAEF"/>
<path d="M481.178 44.881V39.5553H473.343V85.7718H481.263V52.6459L483.027 51.6873C484.926 50.678 486.884 49.7955 488.899 49.0459C491.292 48.1016 493.768 47.3676 496.289 46.8514L496.892 46.7344V38.373L495.992 38.5648C490.695 39.6725 485.659 41.8187 481.178 44.881Z" fill="#0BBAEF"/>
<path d="M518.872 38.6328C506.496 38.6328 500.223 46.8022 500.223 62.9177C500.223 70.9061 501.566 76.9028 504.203 80.7479C506.846 84.5933 511.53 86.6594 517.93 86.6594C523.557 86.5791 529.173 86.0987 534.729 85.2218L535.395 85.1259L535.176 78.3513L531.9 78.7029C527.541 79.0544 523.199 79.2355 519 79.2355C515.016 79.2355 512.217 78.1704 510.657 75.9763C509.095 73.782 508.322 70.5545 508.237 66.1769H536.411L536.801 60.3187C536.801 52.9481 535.303 47.4413 532.335 43.9476C529.367 40.4542 524.795 38.6328 518.872 38.6328ZM528.903 59.2964H508.162C508.301 54.6416 509.218 51.2013 510.929 49.0815C512.643 46.9618 515.324 45.7902 518.914 45.7902C522.504 45.7902 525.004 46.8554 526.529 48.8793C528.047 50.9029 528.829 54.4605 528.903 59.2964Z" fill="#0BBAEF"/>
<path d="M573.368 62.5914C571.14 60.8233 567.497 59.5023 562.249 58.5439C557.287 57.6491 554.085 56.7756 552.747 55.9662C552.135 55.5612 551.646 54.994 551.33 54.3269C551.02 53.66 550.896 52.9188 550.974 52.1847C550.974 48.1268 553.78 46.1458 559.545 46.1458C564.532 46.2715 569.504 46.7483 574.422 47.5727L575.259 47.6899L575.478 40.4687L572.419 39.8931C568.048 39.1427 563.628 38.7226 559.195 38.6364C555.145 38.4968 551.151 39.6403 547.772 41.9063C544.606 44.1326 543.04 47.5942 543.04 52.1847C543.04 56.7756 544.203 59.9815 546.505 61.7712C548.805 63.5606 552.344 64.7111 557.538 65.5738C562.439 66.394 565.638 67.2458 567.044 68.1085C568.446 68.9715 568.912 70.4093 568.912 72.742C568.912 75.0748 568.172 76.6831 566.654 77.6418C565.132 78.6002 562.628 79.186 559.471 79.186C554.57 79.0146 549.688 78.4984 544.857 77.6418L544.047 77.514L543.611 84.842L546.843 85.3958C551.023 86.1763 555.261 86.6002 559.515 86.6636C565.078 86.6636 569.397 85.5237 572.344 83.2868C575.29 81.0498 576.884 77.3968 576.884 72.6354C576.884 67.8743 575.647 64.4021 573.368 62.5914Z" fill="#0BBAEF"/>
<path d="M215.366 157.618H213.36L203.339 118.719H194.924L207.403 164.956H221.405L233.886 118.719H225.724L215.366 157.618Z" fill="#0BBAEF"/>
<path d="M248.306 100.818H240.376V110.117H248.306V100.818Z" fill="#0BBAEF"/>
<path d="M248.306 118.719H240.376V164.956H248.306V118.719Z" fill="#0BBAEF"/>
<path d="M290.846 155.868V132.967C290.846 127.844 289.674 123.988 287.339 121.528C285.007 119.067 281.268 117.811 276.22 117.811C270.537 117.895 264.877 118.558 259.327 119.792L258.703 119.919L259.03 126.47L262.483 126.118C267.172 125.543 271.888 125.248 276.612 125.234C277.453 125.183 278.298 125.31 279.09 125.607C279.879 125.904 280.6 126.365 281.205 126.96C282.261 128.132 282.874 130.155 282.874 132.967V136.163L270.107 137.441C265.45 137.931 261.956 139.284 259.726 141.446C257.499 143.608 256.338 147.07 256.338 151.607C256.338 156.145 257.394 159.681 259.61 162.131C261.829 164.58 265.018 165.88 269.114 165.88C274.383 165.832 279.582 164.663 284.373 162.45C286.78 164.719 290.254 165.88 294.72 165.88H295.439L295.766 159.181L295.07 159.084C291.057 158.499 290.897 156.475 290.846 155.868ZM270.223 158.68C267.763 158.68 264.479 157.902 264.479 151.224C264.342 149.356 264.883 147.501 265.999 146.005C267.055 144.843 268.713 144.151 271.068 143.928L282.916 142.756V156.145L281.447 156.677C277.851 158.002 274.051 158.68 270.223 158.68Z" fill="#0BBAEF"/>
<path d="M310.457 99.2109H302.526V164.951H310.457V99.2109Z" fill="#0BBAEF"/>
<path d="M338.552 117.811C326.177 117.811 319.904 125.98 319.904 142.085C319.904 150.084 321.246 156.081 323.896 159.915C326.546 163.75 331.214 165.837 337.622 165.837C343.25 165.752 348.862 165.271 354.422 164.399L355.088 164.293L354.867 157.529L351.604 157.881C347.241 158.232 342.903 158.414 338.689 158.414C334.718 158.414 331.91 157.348 330.357 155.154C328.805 152.96 328.013 149.733 327.939 145.355H356.132L356.524 139.497C356.524 132.126 355.023 126.619 352.068 123.125C349.112 119.632 344.519 117.811 338.552 117.811ZM348.583 138.463H327.844C327.983 133.809 328.9 130.379 330.622 128.26C332.344 126.14 335.004 124.958 338.594 124.958C342.184 124.958 344.665 126.023 346.208 128.057C347.749 130.091 348.509 133.574 348.583 138.463Z" fill="#0BBAEF"/>
<path d="M393.052 141.808C390.813 140.04 387.18 138.719 381.931 137.76C376.959 136.855 373.759 135.992 372.427 135.172C371.807 134.769 371.312 134.2 370.997 133.528C370.679 132.857 370.553 132.109 370.631 131.37C370.631 127.311 373.443 125.33 379.22 125.33C384.201 125.457 389.171 125.934 394.085 126.758L394.92 126.885L395.141 119.653L392.087 119.078C387.723 118.327 383.303 117.907 378.868 117.821C374.825 117.687 370.837 118.83 367.465 121.091C364.297 123.317 362.735 126.768 362.735 131.37C362.735 135.971 363.907 139.166 366.21 140.956C368.51 142.745 372.049 143.896 377.233 144.759C382.144 145.579 385.331 146.431 386.737 147.293C388.139 148.156 388.604 149.594 388.604 151.927C388.604 154.259 387.867 155.868 386.345 156.826C384.825 157.785 382.321 158.371 379.167 158.371C374.269 158.21 369.389 157.701 364.562 156.848L363.738 156.731L363.316 164.048L366.544 164.612C370.709 165.391 374.931 165.815 379.167 165.88C384.739 165.88 389.049 164.74 391.996 162.503C394.943 160.267 396.536 156.613 396.536 151.788C396.536 146.963 395.343 143.587 393.052 141.808Z" fill="#0BBAEF"/>
</svg>
